<svg width="24" height="24" viewBox="0 0 24 24" xmlns="http://www.w3.org/2000/svg"><g fill="#ff6995"><path d="M17.26 4.026c1.5.896 4.558 3.823 4.558 8.155 0 4.332-3.059 7.259-4.559 8.154a1.09 1.09 0 0 0-.377 1.496c.309.518.977.686 1.495.377C20.273 21.081 24 17.55 24 12.181c0-5.368-3.727-8.9-5.623-10.027a1.093 1.093 0 0 0-1.495.377 1.094 1.094 0 0 0 .377 1.495Z"></path><path d="M10.842 8.71c-.414.44-.39 1.131.05 1.54l4.968 4.66-4.968 4.659a1.091 1.091 0 0 0 1.49 1.59l5.82-5.454c.217-.205.345-.495.345-.795 0-.3-.123-.591-.346-.796L12.383 8.66a1.087 1.087 0 0 0-1.54.05Z"></path><path d="M13.16 3.255a1.087 1.087 0 0 0-1.54-.05L5.8 8.66a1.08 1.08 0 0 0-.345.795c0 .3.123.591.345.796l5.818 5.454a1.09 1.09 0 0 0 1.49-1.59l-4.967-4.66 4.968-4.659c.441-.414.464-1.105.05-1.54Z"></path><path d="M6.74 4.027a1.09 1.09 0 0 0 .378-1.495 1.09 1.09 0 0 0-1.495-.377C3.727 3.282 0 6.814 0 12.182c0 5.368 3.727 8.9 5.623 10.027.518.31 1.186.136 1.495-.377a1.094 1.094 0 0 0-.377-1.496c-1.5-.895-4.56-3.822-4.56-8.154s3.06-7.26 4.56-8.155Z"></path></g></svg>